<svg width="24" height="24" viewBox="0 0 24 24" fill="none" xmlns="http://www.w3.org/2000/svg">
<path d="M12 0C18.6276 0 24 5.3724 24 12C24 18.6276 18.6276 24 12 24C5.3724 24 0 18.6276 0 12C0 5.3724 5.3724 0 12 0ZM17.5152 6.4848C17.3964 6.36595 17.2395 6.29275 17.072 6.27805C16.9046 6.26335 16.7373 6.30808 16.5996 6.4044C13.1316 8.838 11.1756 10.2804 10.7268 10.7268C10.3891 11.0645 10.1994 11.5225 10.1994 12C10.1994 12.4775 10.3891 12.9355 10.7268 13.2732C11.0645 13.6109 11.5225 13.8006 12 13.8006C12.4775 13.8006 12.9355 13.6109 13.2732 13.2732C13.536 13.0092 14.9748 11.052 17.5908 7.3968C17.6882 7.26042 17.734 7.09394 17.7202 6.92694C17.7063 6.75995 17.6337 6.60328 17.5152 6.4848ZM18.6 10.8C18.2817 10.8 17.9765 10.9264 17.7515 11.1515C17.5264 11.3765 17.4 11.6817 17.4 12C17.4 12.3183 17.5264 12.6235 17.7515 12.8485C17.9765 13.0736 18.2817 13.2 18.6 13.2C18.9183 13.2 19.2235 13.0736 19.4485 12.8485C19.6736 12.6235 19.8 12.3183 19.8 12C19.8 11.6817 19.6736 11.3765 19.4485 11.1515C19.2235 10.9264 18.9183 10.8 18.6 10.8ZM5.4 10.8C5.08174 10.8 4.77652 10.9264 4.55147 11.1515C4.32643 11.3765 4.2 11.6817 4.2 12C4.2 12.3183 4.32643 12.6235 4.55147 12.8485C4.77652 13.0736 5.08174 13.2 5.4 13.2C5.71826 13.2 6.02348 13.0736 6.24853 12.8485C6.47357 12.6235 6.6 12.3183 6.6 12C6.6 11.6817 6.47357 11.3765 6.24853 11.1515C6.02348 10.9264 5.71826 10.8 5.4 10.8ZM8.1816 6.4848C8.0709 6.37019 7.93849 6.27877 7.79209 6.21588C7.64568 6.15299 7.48822 6.11988 7.32888 6.1185C7.16955 6.11712 7.01153 6.14748 6.86406 6.20781C6.71658 6.26815 6.5826 6.35725 6.46993 6.46993C6.35725 6.5826 6.26815 6.71658 6.20781 6.86406C6.14748 7.01153 6.11712 7.16955 6.1185 7.32888C6.11988 7.48822 6.15299 7.64568 6.21588 7.79209C6.27877 7.93849 6.37019 8.0709 6.4848 8.1816C6.71112 8.40019 7.01425 8.52114 7.32888 8.51841C7.64352 8.51567 7.94449 8.38947 8.16698 8.16698C8.38947 7.94449 8.51567 7.64352 8.51841 7.32888C8.52114 7.01425 8.40019 6.71112 8.1816 6.4848ZM12 4.2C11.6817 4.2 11.3765 4.32643 11.1515 4.55147C10.9264 4.77652 10.8 5.08174 10.8 5.4C10.8 5.71826 10.9264 6.02348 11.1515 6.24853C11.3765 6.47357 11.6817 6.6 12 6.6C12.3183 6.6 12.6235 6.47357 12.8485 6.24853C13.0736 6.02348 13.2 5.71826 13.2 5.4C13.2 5.08174 13.0736 4.77652 12.8485 4.55147C12.6235 4.32643 12.3183 4.2 12 4.2Z" fill="white"/>
</svg>
